<svg width="32" height="32" viewBox="0 0 32 32" fill="none" xmlns="http://www.w3.org/2000/svg">
<circle cx="16" cy="16" r="14" fill="#42C83C"/>
<path d="M16 30.3333C8.09334 30.3333 1.66667 23.9067 1.66667 16C1.66667 8.09333 8.09334 1.66667 16 1.66667C23.9067 1.66667 30.3333 8.09333 30.3333 16C30.3333 23.9067 23.9067 30.3333 16 30.3333ZM16 3.66667C9.2 3.66667 3.66667 9.2 3.66667 16C3.66667 22.8 9.2 28.3333 16 28.3333C22.8 28.3333 28.3333 22.8 28.3333 16C28.3333 9.2 22.8 3.66667 16 3.66667Z" fill="#42C83C"/>
<path d="M20.9467 21.24C20.7733 21.24 20.6 21.2 20.44 21.0933L16.3067 18.6267C15.28 18.0133 14.52 16.6667 14.52 15.48V10.0133C14.52 9.46667 14.9733 9.01333 15.52 9.01333C16.0667 9.01333 16.52 9.46667 16.52 10.0133V15.48C16.52 15.96 16.92 16.6667 17.3333 16.9067L21.4667 19.3733C21.9467 19.6533 22.0933 20.2667 21.8133 20.7467C21.6133 21.0667 21.28 21.24 20.9467 21.24Z" fill="#333333"/>
</svg>
