<svg width="21" height="21" viewBox="0 0 21 21" fill="none" xmlns="http://www.w3.org/2000/svg">
<path d="M10.5332 19.072C5.27676 19.072 0.997192 14.7924 0.997192 9.53599C0.997192 4.27957 5.27676 0 10.5332 0C15.7896 0 20.0692 4.27957 20.0692 9.53599C20.0692 14.7924 15.7896 19.072 10.5332 19.072ZM10.5332 1.39551C6.03964 1.39551 2.3927 5.05175 2.3927 9.53599C2.3927 14.0202 6.03964 17.6765 10.5332 17.6765C15.0267 17.6765 18.6737 14.0202 18.6737 9.53599C18.6737 5.05175 15.0267 1.39551 10.5332 1.39551Z" fill="black" fill-opacity="0.4"/>
<path d="M20.3018 20.0024C20.1251 20.0024 19.9483 19.9373 19.8088 19.7977L17.9481 17.937C17.6783 17.6672 17.6783 17.2207 17.9481 16.9509C18.2179 16.6811 18.6644 16.6811 18.9342 16.9509L20.7949 18.8116C21.0647 19.0814 21.0647 19.5279 20.7949 19.7977C20.6554 19.9373 20.4786 20.0024 20.3018 20.0024Z" fill="black" fill-opacity="0.4"/>
</svg>
